<mxfile host="65bd71144e">
    <diagram id="m3HvIhWjnAvnYTWwnYqM" name="Page-1">
        <mxGraphModel dx="2176" dy="1306" grid="1" gridSize="1" guides="1" tooltips="1" connect="1" arrows="1" fold="1" page="1" pageScale="1" pageWidth="2000" pageHeight="1000" math="0" shadow="0">
            <root>
                <mxCell id="0"/>
                <mxCell id="1" parent="0"/>
                <mxCell id="2" value="&lt;span style=&quot;font-size: 20px;&quot;&gt;PIPELINE&amp;nbsp; CPU&lt;/span&gt;" style="text;html=1;strokeColor=default;fillColor=none;align=center;verticalAlign=middle;whiteSpace=wrap;rounded=0;fontSize=8;strokeWidth=3;" parent="1" vertex="1">
                    <mxGeometry x="90" y="50" width="220" height="70" as="geometry"/>
                </mxCell>
                <mxCell id="141" style="edgeStyle=none;html=1;exitX=0;exitY=0.5;exitDx=0;exitDy=0;exitPerimeter=0;fontSize=4;entryX=0;entryY=0;entryDx=0;entryDy=27.5;entryPerimeter=0;strokeWidth=3;" parent="1" target="12" edge="1">
                    <mxGeometry relative="1" as="geometry">
                        <mxPoint x="1352" y="389.9999999999999" as="sourcePoint"/>
                        <Array as="points">
                            <mxPoint x="1352" y="487"/>
                        </Array>
                    </mxGeometry>
                </mxCell>
                <mxCell id="143" style="edgeStyle=none;html=1;exitX=1;exitY=0.5;exitDx=0;exitDy=0;exitPerimeter=0;entryX=0.001;entryY=0.485;entryDx=0;entryDy=0;fontSize=4;entryPerimeter=0;strokeWidth=3;" parent="1" source="12" target="107" edge="1">
                    <mxGeometry relative="1" as="geometry"/>
                </mxCell>
                <mxCell id="12" value="LSU" style="shape=cylinder3;whiteSpace=wrap;html=1;boundedLbl=1;backgroundOutline=1;size=15;strokeColor=default;strokeWidth=3;fontSize=20;" parent="1" vertex="1">
                    <mxGeometry x="1403" y="459" width="60" height="80" as="geometry"/>
                </mxCell>
                <mxCell id="111" style="edgeStyle=none;html=1;exitX=0.5;exitY=0;exitDx=0;exitDy=0;entryX=0;entryY=0.5;entryDx=0;entryDy=0;entryPerimeter=0;fontSize=5;strokeWidth=3;" parent="1" source="14" target="19" edge="1">
                    <mxGeometry relative="1" as="geometry"/>
                </mxCell>
                <mxCell id="14" value="" style="shape=trapezoid;perimeter=trapezoidPerimeter;whiteSpace=wrap;html=1;fixedSize=1;rotation=90;strokeWidth=3;" parent="1" vertex="1">
                    <mxGeometry x="173" y="404" width="80" height="40" as="geometry"/>
                </mxCell>
                <mxCell id="112" style="edgeStyle=none;html=1;exitX=0.5;exitY=0;exitDx=0;exitDy=0;fontSize=4;entryX=0.5;entryY=0;entryDx=0;entryDy=0;strokeWidth=3;" parent="1" target="16" edge="1">
                    <mxGeometry relative="1" as="geometry">
                        <mxPoint x="263.00000000000006" y="424" as="sourcePoint"/>
                    </mxGeometry>
                </mxCell>
                <mxCell id="113" style="edgeStyle=orthogonalEdgeStyle;html=1;exitX=0;exitY=0.5;exitDx=0;exitDy=0;fontSize=4;entryX=0.75;entryY=1;entryDx=0;entryDy=0;strokeWidth=3;" parent="1" source="16" target="14" edge="1">
                    <mxGeometry relative="1" as="geometry">
                        <mxPoint x="163" y="404" as="targetPoint"/>
                        <Array as="points">
                            <mxPoint x="103" y="589"/>
                            <mxPoint x="103" y="444"/>
                        </Array>
                    </mxGeometry>
                </mxCell>
                <mxCell id="16" value="PC + 4" style="whiteSpace=wrap;html=1;aspect=fixed;strokeWidth=3;" parent="1" vertex="1">
                    <mxGeometry x="245" y="569" width="40" height="40" as="geometry"/>
                </mxCell>
                <mxCell id="115" style="html=1;exitX=1;exitY=0.5;exitDx=0;exitDy=0;exitPerimeter=0;fontSize=4;entryX=-0.015;entryY=0.309;entryDx=0;entryDy=0;entryPerimeter=0;strokeWidth=3;" parent="1" source="19" target="103" edge="1">
                    <mxGeometry relative="1" as="geometry">
                        <mxPoint x="423" y="474" as="targetPoint"/>
                    </mxGeometry>
                </mxCell>
                <mxCell id="19" value="IMEM" style="shape=cylinder3;whiteSpace=wrap;html=1;boundedLbl=1;backgroundOutline=1;size=15;strokeWidth=3;" parent="1" vertex="1">
                    <mxGeometry x="314" y="384" width="60" height="80" as="geometry"/>
                </mxCell>
                <mxCell id="118" value="" style="edgeStyle=none;html=1;fontSize=4;strokeWidth=3;" parent="1" source="22" target="24" edge="1">
                    <mxGeometry relative="1" as="geometry"/>
                </mxCell>
                <mxCell id="22" value="&lt;font style=&quot;font-size: 8px;&quot;&gt;INSTRUCTION DECODER&lt;/font&gt;" style="rounded=0;whiteSpace=wrap;html=1;strokeWidth=3;" parent="1" vertex="1">
                    <mxGeometry x="573" y="470" width="60" height="80" as="geometry"/>
                </mxCell>
                <mxCell id="121" style="edgeStyle=none;html=1;fontSize=4;strokeWidth=3;" parent="1" source="24" edge="1">
                    <mxGeometry relative="1" as="geometry">
                        <mxPoint x="854" y="510" as="targetPoint"/>
                    </mxGeometry>
                </mxCell>
                <mxCell id="24" value="REG" style="shape=cylinder3;whiteSpace=wrap;html=1;boundedLbl=1;backgroundOutline=1;size=15;fontSize=8;strokeWidth=3;" parent="1" vertex="1">
                    <mxGeometry x="721" y="464" width="60" height="92" as="geometry"/>
                </mxCell>
                <mxCell id="34" value="" style="group;strokeWidth=3;" parent="1" vertex="1" connectable="0">
                    <mxGeometry x="1121.5" y="407.5" width="60" height="85" as="geometry"/>
                </mxCell>
                <mxCell id="35" value="" style="shape=trapezoid;perimeter=trapezoidPerimeter;whiteSpace=wrap;html=1;fixedSize=1;fontSize=8;rotation=90;strokeWidth=3;" parent="34" vertex="1">
                    <mxGeometry x="-12.5" y="12.5" width="85" height="60" as="geometry"/>
                </mxCell>
                <mxCell id="36" value="ALU" style="text;html=1;strokeColor=none;fillColor=none;align=center;verticalAlign=middle;whiteSpace=wrap;rounded=0;fontSize=8;strokeWidth=3;" parent="34" vertex="1">
                    <mxGeometry y="27.5" width="60" height="30" as="geometry"/>
                </mxCell>
                <mxCell id="119" style="edgeStyle=orthogonalEdgeStyle;html=1;fontSize=4;strokeWidth=3;" parent="1" target="38" edge="1">
                    <mxGeometry relative="1" as="geometry">
                        <mxPoint x="663" y="510" as="sourcePoint"/>
                        <Array as="points">
                            <mxPoint x="662" y="510"/>
                            <mxPoint x="662" y="620"/>
                        </Array>
                    </mxGeometry>
                </mxCell>
                <mxCell id="120" style="html=1;fontSize=4;entryX=-0.04;entryY=0.602;entryDx=0;entryDy=0;entryPerimeter=0;strokeWidth=3;" parent="1" edge="1">
                    <mxGeometry relative="1" as="geometry">
                        <mxPoint x="777" y="620" as="sourcePoint"/>
                        <mxPoint x="853" y="619.78" as="targetPoint"/>
                    </mxGeometry>
                </mxCell>
                <mxCell id="38" value="IMM_GEN" style="rounded=0;whiteSpace=wrap;html=1;fontSize=8;strokeWidth=3;" parent="1" vertex="1">
                    <mxGeometry x="691" y="599.5" width="90" height="40" as="geometry"/>
                </mxCell>
                <mxCell id="41" value="" style="group;strokeWidth=3;" parent="1" vertex="1" connectable="0">
                    <mxGeometry x="1044" y="470" width="40" height="60" as="geometry"/>
                </mxCell>
                <mxCell id="42" value="" style="shape=trapezoid;perimeter=trapezoidPerimeter;whiteSpace=wrap;html=1;fixedSize=1;fontSize=8;rotation=90;strokeWidth=3;" parent="41" vertex="1">
                    <mxGeometry x="-10" y="10" width="60" height="40" as="geometry"/>
                </mxCell>
                <mxCell id="43" value="&lt;font style=&quot;font-size: 5px;&quot;&gt;OPERAND B&lt;/font&gt;" style="text;html=1;strokeColor=none;fillColor=none;align=center;verticalAlign=middle;whiteSpace=wrap;rounded=0;fontSize=8;strokeWidth=3;" parent="41" vertex="1">
                    <mxGeometry y="15" width="40" height="30" as="geometry"/>
                </mxCell>
                <mxCell id="46" value="" style="group;strokeWidth=3;" parent="1" vertex="1" connectable="0">
                    <mxGeometry x="1045" y="395" width="40" height="60" as="geometry"/>
                </mxCell>
                <mxCell id="47" value="" style="shape=trapezoid;perimeter=trapezoidPerimeter;whiteSpace=wrap;html=1;fixedSize=1;fontSize=8;rotation=90;strokeWidth=3;" parent="46" vertex="1">
                    <mxGeometry x="-9" y="10" width="60" height="40" as="geometry"/>
                </mxCell>
                <mxCell id="48" value="OPERAND A" style="text;html=1;strokeColor=none;fillColor=none;align=center;verticalAlign=middle;whiteSpace=wrap;rounded=0;fontSize=5;strokeWidth=3;" parent="46" vertex="1">
                    <mxGeometry x="0.5" y="15" width="39" height="30" as="geometry"/>
                </mxCell>
                <mxCell id="68" value="PC_SELCECOR" style="text;html=1;align=center;verticalAlign=middle;resizable=0;points=[];autosize=1;strokeColor=none;fillColor=none;fontSize=5;strokeWidth=3;" parent="1" vertex="1">
                    <mxGeometry x="185" y="412.5" width="56" height="19" as="geometry"/>
                </mxCell>
                <mxCell id="130" style="edgeStyle=none;html=1;fontSize=4;entryX=0.25;entryY=0;entryDx=0;entryDy=0;strokeWidth=3;" parent="1" target="96" edge="1">
                    <mxGeometry relative="1" as="geometry">
                        <mxPoint x="954" y="409" as="sourcePoint"/>
                    </mxGeometry>
                </mxCell>
                <mxCell id="134" style="edgeStyle=none;html=1;fontSize=4;entryX=0.5;entryY=0;entryDx=0;entryDy=0;strokeWidth=3;" parent="1" target="96" edge="1">
                    <mxGeometry relative="1" as="geometry">
                        <mxPoint x="984" y="486" as="sourcePoint"/>
                    </mxGeometry>
                </mxCell>
                <mxCell id="96" value="COMPARE" style="whiteSpace=wrap;html=1;fontSize=8;strokeWidth=3;" parent="1" vertex="1">
                    <mxGeometry x="924" y="792" width="120" height="60" as="geometry"/>
                </mxCell>
                <mxCell id="116" style="edgeStyle=none;html=1;exitX=0.993;exitY=0.348;exitDx=0;exitDy=0;entryX=0;entryY=0.5;entryDx=0;entryDy=0;fontSize=4;exitPerimeter=0;strokeWidth=3;" parent="1" target="22" edge="1">
                    <mxGeometry relative="1" as="geometry">
                        <mxPoint x="492.6500000000001" y="510.72" as="sourcePoint"/>
                    </mxGeometry>
                </mxCell>
                <mxCell id="190" style="edgeStyle=none;html=1;exitX=0.992;exitY=0.143;exitDx=0;exitDy=0;entryX=0;entryY=0.25;entryDx=0;entryDy=0;strokeWidth=3;exitPerimeter=0;" edge="1" parent="1">
                    <mxGeometry relative="1" as="geometry">
                        <mxPoint x="492.5999999999999" y="335.77" as="sourcePoint"/>
                        <mxPoint x="855" y="336.5000000000001" as="targetPoint"/>
                    </mxGeometry>
                </mxCell>
                <mxCell id="191" style="edgeStyle=none;html=1;strokeWidth=3;entryX=0;entryY=0.5;entryDx=0;entryDy=0;" edge="1" parent="1" target="103">
                    <mxGeometry relative="1" as="geometry">
                        <mxPoint x="264" y="499" as="sourcePoint"/>
                    </mxGeometry>
                </mxCell>
                <mxCell id="103" value="REG1" style="rounded=0;whiteSpace=wrap;html=1;strokeWidth=3;" parent="1" vertex="1">
                    <mxGeometry x="443" y="304" width="50" height="390" as="geometry"/>
                </mxCell>
                <mxCell id="188" style="edgeStyle=none;html=1;exitX=1;exitY=0.75;exitDx=0;exitDy=0;fontSize=12;entryX=0;entryY=0.75;entryDx=0;entryDy=0;strokeWidth=3;" parent="1" edge="1">
                    <mxGeometry relative="1" as="geometry">
                        <mxPoint x="1263" y="623.5" as="targetPoint"/>
                        <mxPoint x="905" y="623.5" as="sourcePoint"/>
                    </mxGeometry>
                </mxCell>
                <mxCell id="194" style="html=1;exitX=1;exitY=0;exitDx=0;exitDy=0;strokeWidth=3;entryX=0;entryY=0;entryDx=0;entryDy=0;" edge="1" parent="1">
                    <mxGeometry relative="1" as="geometry">
                        <mxPoint x="1263" y="334" as="targetPoint"/>
                        <mxPoint x="905" y="333.9999999999999" as="sourcePoint"/>
                    </mxGeometry>
                </mxCell>
                <mxCell id="200" style="edgeStyle=orthogonalEdgeStyle;html=1;strokeWidth=3;" edge="1" parent="1">
                    <mxGeometry relative="1" as="geometry">
                        <mxPoint x="851" y="661" as="targetPoint"/>
                        <mxPoint x="524" y="512" as="sourcePoint"/>
                        <Array as="points">
                            <mxPoint x="524" y="661"/>
                        </Array>
                    </mxGeometry>
                </mxCell>
                <mxCell id="201" style="html=1;exitX=1;exitY=1;exitDx=0;exitDy=0;strokeWidth=3;entryX=0;entryY=1;entryDx=0;entryDy=0;" edge="1" parent="1">
                    <mxGeometry relative="1" as="geometry">
                        <mxPoint x="1263" y="665" as="targetPoint"/>
                        <mxPoint x="905" y="665" as="sourcePoint"/>
                    </mxGeometry>
                </mxCell>
                <mxCell id="105" value="REG2" style="rounded=0;whiteSpace=wrap;html=1;strokeWidth=3;" parent="1" vertex="1">
                    <mxGeometry x="855" y="309" width="50" height="390" as="geometry"/>
                </mxCell>
                <mxCell id="139" style="edgeStyle=none;html=1;fontSize=4;entryX=-0.051;entryY=0.522;entryDx=0;entryDy=0;entryPerimeter=0;strokeWidth=3;" parent="1" edge="1">
                    <mxGeometry relative="1" as="geometry">
                        <mxPoint x="983" y="576" as="sourcePoint"/>
                        <mxPoint x="1260.4500000000003" y="573.5799999999999" as="targetPoint"/>
                    </mxGeometry>
                </mxCell>
                <mxCell id="140" style="edgeStyle=none;html=1;exitX=1;exitY=0.25;exitDx=0;exitDy=0;entryX=0;entryY=0.25;entryDx=0;entryDy=0;fontSize=4;strokeWidth=3;" parent="1" edge="1">
                    <mxGeometry relative="1" as="geometry">
                        <mxPoint x="1313" y="390.5" as="sourcePoint"/>
                        <mxPoint x="1533" y="390.5000000000001" as="targetPoint"/>
                    </mxGeometry>
                </mxCell>
                <mxCell id="142" style="edgeStyle=none;html=1;exitX=1.009;exitY=0.518;exitDx=0;exitDy=0;entryX=0;entryY=0;entryDx=0;entryDy=52.5;entryPerimeter=0;fontSize=4;exitPerimeter=0;strokeWidth=3;" parent="1" source="106" target="12" edge="1">
                    <mxGeometry relative="1" as="geometry"/>
                </mxCell>
                <mxCell id="185" style="html=1;exitX=1;exitY=0.75;exitDx=0;exitDy=0;fontSize=12;entryX=0;entryY=0.75;entryDx=0;entryDy=0;entryPerimeter=0;strokeWidth=3;" parent="1" source="106" target="107" edge="1">
                    <mxGeometry relative="1" as="geometry">
                        <mxPoint x="1515" y="602" as="targetPoint"/>
                    </mxGeometry>
                </mxCell>
                <mxCell id="202" style="edgeStyle=none;html=1;exitX=1;exitY=1;exitDx=0;exitDy=0;entryX=0;entryY=1;entryDx=0;entryDy=0;entryPerimeter=0;strokeWidth=3;" edge="1" parent="1">
                    <mxGeometry relative="1" as="geometry">
                        <mxPoint x="1312.9999999999995" y="664.9999999999998" as="sourcePoint"/>
                        <mxPoint x="1532.9999999999995" y="664.9999999999998" as="targetPoint"/>
                    </mxGeometry>
                </mxCell>
                <mxCell id="106" value="REG3" style="rounded=0;whiteSpace=wrap;html=1;strokeWidth=3;" parent="1" vertex="1">
                    <mxGeometry x="1263" y="309" width="50" height="390" as="geometry"/>
                </mxCell>
                <mxCell id="149" style="html=1;exitX=1;exitY=0.25;exitDx=0;exitDy=0;exitPerimeter=0;fontSize=12;strokeWidth=3;" parent="1" edge="1">
                    <mxGeometry relative="1" as="geometry">
                        <mxPoint x="1662" y="390" as="targetPoint"/>
                        <mxPoint x="1583" y="389.5" as="sourcePoint"/>
                    </mxGeometry>
                </mxCell>
                <mxCell id="150" style="edgeStyle=none;html=1;exitX=1;exitY=0.25;exitDx=0;exitDy=0;exitPerimeter=0;entryX=0.309;entryY=1.009;entryDx=0;entryDy=0;entryPerimeter=0;fontSize=12;strokeWidth=3;" parent="1" edge="1">
                    <mxGeometry relative="1" as="geometry">
                        <mxPoint x="1583" y="415.5000000000002" as="sourcePoint"/>
                        <mxPoint x="1663.4114999999997" y="414.2812499999998" as="targetPoint"/>
                    </mxGeometry>
                </mxCell>
                <mxCell id="151" style="edgeStyle=none;html=1;exitX=1.039;exitY=0.299;exitDx=0;exitDy=0;exitPerimeter=0;entryX=0.5;entryY=1;entryDx=0;entryDy=0;fontSize=12;strokeWidth=3;" parent="1" edge="1">
                    <mxGeometry relative="1" as="geometry">
                        <mxPoint x="1584.9500000000003" y="438.6100000000001" as="sourcePoint"/>
                        <mxPoint x="1663.8749999999995" y="437.6199999999999" as="targetPoint"/>
                    </mxGeometry>
                </mxCell>
                <mxCell id="152" style="edgeStyle=none;html=1;exitX=0.992;exitY=0.355;exitDx=0;exitDy=0;exitPerimeter=0;fontSize=12;entryX=0.715;entryY=1.027;entryDx=0;entryDy=0;entryPerimeter=0;strokeWidth=3;" parent="1" edge="1">
                    <mxGeometry relative="1" as="geometry">
                        <mxPoint x="1662.4845" y="464.38874999999985" as="targetPoint"/>
                        <mxPoint x="1582.6" y="465.45000000000005" as="sourcePoint"/>
                    </mxGeometry>
                </mxCell>
                <mxCell id="206" style="edgeStyle=orthogonalEdgeStyle;html=1;exitX=1;exitY=0.908;exitDx=0;exitDy=0;exitPerimeter=0;entryX=0;entryY=0;entryDx=0;entryDy=15;entryPerimeter=0;strokeWidth=3;" edge="1" parent="1" source="107" target="24">
                    <mxGeometry relative="1" as="geometry">
                        <Array as="points">
                            <mxPoint x="1842" y="663"/>
                            <mxPoint x="1842" y="277"/>
                            <mxPoint x="666" y="277"/>
                            <mxPoint x="666" y="479"/>
                        </Array>
                    </mxGeometry>
                </mxCell>
                <mxCell id="107" value="REG4" style="rounded=0;whiteSpace=wrap;html=1;strokeWidth=3;points=[[0,0,0,0,0],[0,0.25,0,0,0],[0,0.33,0,0,0],[0,0.5,0,0,0],[0,0.67,0,0,0],[0,0.75,0,0,0],[0,1,0,0,0],[0.24,0,0,0,0],[0.24,1,0,0,0],[0.5,0,0,0,0],[0.5,1,0,0,0],[0.74,1,0,0,0],[0.76,0,0,0,0],[1,0,0,0,0],[1,0.25,0,0,0],[1,0.5,0,0,0],[1,0.75,0,0,0],[1,1,0,0,0]];" parent="1" vertex="1">
                    <mxGeometry x="1533" y="309" width="50" height="390" as="geometry"/>
                </mxCell>
                <mxCell id="108" value="" style="group;strokeWidth=3;" parent="1" vertex="1" connectable="0">
                    <mxGeometry x="1659.63" y="373.995" width="60" height="101.25" as="geometry"/>
                </mxCell>
                <mxCell id="65" value="" style="shape=trapezoid;perimeter=trapezoidPerimeter;whiteSpace=wrap;html=1;fixedSize=1;fontSize=8;rotation=90;strokeWidth=3;" parent="108" vertex="1">
                    <mxGeometry x="-20.63000000000011" y="24.875" width="101.25" height="51.5" as="geometry"/>
                </mxCell>
                <mxCell id="70" value="WB_SELCECOR" style="text;html=1;strokeColor=none;fillColor=none;align=center;verticalAlign=middle;whiteSpace=wrap;rounded=0;strokeWidth=3;fontSize=5;" parent="108" vertex="1">
                    <mxGeometry y="33.875" width="60" height="30" as="geometry"/>
                </mxCell>
                <mxCell id="146" style="edgeStyle=orthogonalEdgeStyle;html=1;fontSize=12;entryX=0.25;entryY=1;entryDx=0;entryDy=0;strokeWidth=3;" parent="1" target="14" edge="1">
                    <mxGeometry relative="1" as="geometry">
                        <mxPoint x="1234" y="449" as="sourcePoint"/>
                        <Array as="points">
                            <mxPoint x="1234" y="448"/>
                            <mxPoint x="1235" y="448"/>
                            <mxPoint x="1235" y="284"/>
                            <mxPoint x="1236" y="284"/>
                            <mxPoint x="1236" y="243"/>
                            <mxPoint x="101" y="243"/>
                            <mxPoint x="101" y="404"/>
                        </Array>
                        <mxPoint x="-11" y="401.5" as="targetPoint"/>
                    </mxGeometry>
                </mxCell>
                <mxCell id="125" style="edgeStyle=orthogonalEdgeStyle;html=1;exitX=0.976;exitY=0.102;exitDx=0;exitDy=0;entryX=0.25;entryY=1;entryDx=0;entryDy=0;fontSize=4;exitPerimeter=0;strokeWidth=3;" parent="1" target="47" edge="1">
                    <mxGeometry relative="1" as="geometry">
                        <mxPoint x="903.7999999999997" y="409.78" as="sourcePoint"/>
                    </mxGeometry>
                </mxCell>
                <mxCell id="131" style="edgeStyle=none;html=1;exitX=1.021;exitY=0.298;exitDx=0;exitDy=0;entryX=0;entryY=0;entryDx=0;entryDy=0;fontSize=4;exitPerimeter=0;strokeWidth=3;" parent="1" target="43" edge="1">
                    <mxGeometry relative="1" as="geometry">
                        <mxPoint x="906.0499999999997" y="486.22" as="sourcePoint"/>
                    </mxGeometry>
                </mxCell>
                <mxCell id="132" style="edgeStyle=none;html=1;exitX=0.999;exitY=0.183;exitDx=0;exitDy=0;entryX=0;entryY=1;entryDx=0;entryDy=0;fontSize=4;exitPerimeter=0;strokeWidth=3;" parent="1" target="48" edge="1">
                    <mxGeometry relative="1" as="geometry">
                        <mxPoint x="904.9500000000003" y="441.3700000000001" as="sourcePoint"/>
                    </mxGeometry>
                </mxCell>
                <mxCell id="133" style="edgeStyle=none;html=1;exitX=1.01;exitY=0.375;exitDx=0;exitDy=0;entryX=0.75;entryY=1;entryDx=0;entryDy=0;fontSize=4;exitPerimeter=0;strokeWidth=3;" parent="1" target="42" edge="1">
                    <mxGeometry relative="1" as="geometry">
                        <mxPoint x="905.5" y="516.25" as="sourcePoint"/>
                    </mxGeometry>
                </mxCell>
                <mxCell id="135" style="edgeStyle=none;html=1;exitX=1;exitY=0.5;exitDx=0;exitDy=0;entryX=0.202;entryY=1.009;entryDx=0;entryDy=0;fontSize=4;entryPerimeter=0;strokeWidth=3;" parent="1" source="48" target="35" edge="1">
                    <mxGeometry relative="1" as="geometry"/>
                </mxCell>
                <mxCell id="136" style="edgeStyle=none;html=1;exitX=1;exitY=0.5;exitDx=0;exitDy=0;entryX=0.75;entryY=1;entryDx=0;entryDy=0;fontSize=4;strokeWidth=3;" parent="1" source="43" target="35" edge="1">
                    <mxGeometry relative="1" as="geometry">
                        <Array as="points">
                            <mxPoint x="1097" y="496"/>
                            <mxPoint x="1098" y="473"/>
                        </Array>
                    </mxGeometry>
                </mxCell>
                <mxCell id="138" style="edgeStyle=none;html=1;exitX=1;exitY=0.5;exitDx=0;exitDy=0;fontSize=4;entryX=0.016;entryY=0.207;entryDx=0;entryDy=0;entryPerimeter=0;strokeWidth=3;" parent="1" source="36" edge="1">
                    <mxGeometry relative="1" as="geometry">
                        <mxPoint x="1263.7999999999997" y="450.73" as="targetPoint"/>
                    </mxGeometry>
                </mxCell>
                <mxCell id="145" style="edgeStyle=none;html=1;entryX=0.003;entryY=0.066;entryDx=0;entryDy=0;entryPerimeter=0;fontSize=12;strokeWidth=3;exitX=1;exitY=0.5;exitDx=0;exitDy=0;" parent="1" source="196" target="107" edge="1">
                    <mxGeometry relative="1" as="geometry">
                        <mxPoint x="1497" y="334.6004022526147" as="sourcePoint"/>
                    </mxGeometry>
                </mxCell>
                <mxCell id="154" value="wb_o" style="text;html=1;align=center;verticalAlign=middle;resizable=0;points=[];autosize=1;strokeColor=none;fillColor=none;fontSize=12;strokeWidth=3;" parent="1" vertex="1">
                    <mxGeometry x="691" y="427" width="48" height="27" as="geometry"/>
                </mxCell>
                <mxCell id="155" value="alu_o" style="text;html=1;align=center;verticalAlign=middle;resizable=0;points=[];autosize=1;strokeColor=none;fillColor=none;fontSize=12;strokeWidth=3;" parent="1" vertex="1">
                    <mxGeometry x="123" y="370" width="48" height="27" as="geometry"/>
                </mxCell>
                <mxCell id="158" value="pc_4" style="text;html=1;align=center;verticalAlign=middle;resizable=0;points=[];autosize=1;strokeColor=none;fillColor=none;fontSize=12;strokeWidth=3;" parent="1" vertex="1">
                    <mxGeometry x="122" y="419" width="45" height="27" as="geometry"/>
                </mxCell>
                <mxCell id="159" value="pc_o" style="text;html=1;align=center;verticalAlign=middle;resizable=0;points=[];autosize=1;strokeColor=none;fillColor=none;fontSize=12;strokeWidth=3;" parent="1" vertex="1">
                    <mxGeometry x="263" y="398" width="45" height="27" as="geometry"/>
                </mxCell>
                <mxCell id="160" value="instr_o" style="text;html=1;align=center;verticalAlign=middle;resizable=0;points=[];autosize=1;strokeColor=none;fillColor=none;fontSize=12;strokeWidth=3;" parent="1" vertex="1">
                    <mxGeometry x="377" y="398" width="55" height="27" as="geometry"/>
                </mxCell>
                <mxCell id="161" value="instr_reg" style="text;html=1;align=center;verticalAlign=middle;resizable=0;points=[];autosize=1;strokeColor=none;fillColor=none;fontSize=12;strokeWidth=3;" parent="1" vertex="1">
                    <mxGeometry x="494" y="477" width="66" height="27" as="geometry"/>
                </mxCell>
                <mxCell id="164" value="pc_reg" style="text;html=1;align=center;verticalAlign=middle;resizable=0;points=[];autosize=1;strokeColor=none;fillColor=none;fontSize=12;strokeWidth=3;" parent="1" vertex="1">
                    <mxGeometry x="765" y="306" width="56" height="27" as="geometry"/>
                </mxCell>
                <mxCell id="165" value="instr_decde" style="text;html=1;align=center;verticalAlign=middle;resizable=0;points=[];autosize=1;strokeColor=none;fillColor=none;fontSize=12;strokeWidth=3;" parent="1" vertex="1">
                    <mxGeometry x="630" y="475" width="81" height="27" as="geometry"/>
                </mxCell>
                <mxCell id="166" value="rs1,rs2" style="text;html=1;align=center;verticalAlign=middle;resizable=0;points=[];autosize=1;strokeColor=none;fillColor=none;fontSize=12;strokeWidth=3;" parent="1" vertex="1">
                    <mxGeometry x="781" y="484" width="56" height="27" as="geometry"/>
                </mxCell>
                <mxCell id="167" value="imm32" style="text;html=1;align=center;verticalAlign=middle;resizable=0;points=[];autosize=1;strokeColor=none;fillColor=none;fontSize=12;strokeWidth=3;" parent="1" vertex="1">
                    <mxGeometry x="786" y="598" width="55" height="27" as="geometry"/>
                </mxCell>
                <mxCell id="168" value="rs1_reg" style="text;html=1;align=center;verticalAlign=middle;resizable=0;points=[];autosize=1;strokeColor=none;fillColor=none;fontSize=12;strokeWidth=3;" parent="1" vertex="1">
                    <mxGeometry x="980" y="380.5" width="60" height="27" as="geometry"/>
                </mxCell>
                <mxCell id="169" value="pc_reg" style="text;html=1;align=center;verticalAlign=middle;resizable=0;points=[];autosize=1;strokeColor=none;fillColor=none;fontSize=12;strokeWidth=3;" parent="1" vertex="1">
                    <mxGeometry x="982" y="412" width="56" height="27" as="geometry"/>
                </mxCell>
                <mxCell id="170" value="rs2_reg" style="text;html=1;align=center;verticalAlign=middle;resizable=0;points=[];autosize=1;strokeColor=none;fillColor=none;fontSize=12;strokeWidth=3;" parent="1" vertex="1">
                    <mxGeometry x="983" y="454" width="60" height="27" as="geometry"/>
                </mxCell>
                <mxCell id="171" value="imm32_reg" style="text;html=1;align=center;verticalAlign=middle;resizable=0;points=[];autosize=1;strokeColor=none;fillColor=none;fontSize=12;strokeWidth=3;" parent="1" vertex="1">
                    <mxGeometry x="982" y="526" width="79" height="27" as="geometry"/>
                </mxCell>
                <mxCell id="172" value="opa" style="text;html=1;align=center;verticalAlign=middle;resizable=0;points=[];autosize=1;strokeColor=none;fillColor=none;fontSize=12;strokeWidth=3;" parent="1" vertex="1">
                    <mxGeometry x="1078" y="405" width="39" height="27" as="geometry"/>
                </mxCell>
                <mxCell id="173" value="opb" style="text;html=1;align=center;verticalAlign=middle;resizable=0;points=[];autosize=1;strokeColor=none;fillColor=none;fontSize=12;strokeWidth=3;" parent="1" vertex="1">
                    <mxGeometry x="1080" y="449" width="39" height="27" as="geometry"/>
                </mxCell>
                <mxCell id="174" value="alu_o" style="text;html=1;align=center;verticalAlign=middle;resizable=0;points=[];autosize=1;strokeColor=none;fillColor=none;fontSize=12;strokeWidth=3;" parent="1" vertex="1">
                    <mxGeometry x="1177" y="424" width="48" height="27" as="geometry"/>
                </mxCell>
                <mxCell id="175" value="rs2_reg" style="text;html=1;align=center;verticalAlign=middle;resizable=0;points=[];autosize=1;strokeColor=none;fillColor=none;fontSize=12;strokeWidth=3;" parent="1" vertex="1">
                    <mxGeometry x="1188" y="546" width="60" height="27" as="geometry"/>
                </mxCell>
                <mxCell id="176" value="alu_reg1" style="text;html=1;align=center;verticalAlign=middle;resizable=0;points=[];autosize=1;strokeColor=none;fillColor=none;fontSize=12;strokeWidth=3;" parent="1" vertex="1">
                    <mxGeometry x="1452" y="361" width="66" height="27" as="geometry"/>
                </mxCell>
                <mxCell id="177" value="rs2_reg1" style="text;html=1;align=center;verticalAlign=middle;resizable=0;points=[];autosize=1;strokeColor=none;fillColor=none;fontSize=12;strokeWidth=3;" parent="1" vertex="1">
                    <mxGeometry x="1315" y="508" width="66" height="27" as="geometry"/>
                </mxCell>
                <mxCell id="178" value="ld_o" style="text;html=1;align=center;verticalAlign=middle;resizable=0;points=[];autosize=1;strokeColor=none;fillColor=none;fontSize=12;strokeWidth=3;" parent="1" vertex="1">
                    <mxGeometry x="1472" y="476" width="42" height="27" as="geometry"/>
                </mxCell>
                <mxCell id="179" value="pc4_reg" style="text;html=1;align=center;verticalAlign=middle;resizable=0;points=[];autosize=1;strokeColor=none;fillColor=none;fontSize=12;strokeWidth=3;" parent="1" vertex="1">
                    <mxGeometry x="1588" y="358" width="62" height="27" as="geometry"/>
                </mxCell>
                <mxCell id="180" value="alu_reg2" style="text;html=1;align=center;verticalAlign=middle;resizable=0;points=[];autosize=1;strokeColor=none;fillColor=none;fontSize=12;strokeWidth=3;" parent="1" vertex="1">
                    <mxGeometry x="1586" y="389" width="66" height="27" as="geometry"/>
                </mxCell>
                <mxCell id="182" value="ld_reg" style="text;html=1;align=center;verticalAlign=middle;resizable=0;points=[];autosize=1;strokeColor=none;fillColor=none;fontSize=12;strokeWidth=3;" parent="1" vertex="1">
                    <mxGeometry x="1593" y="413" width="52" height="27" as="geometry"/>
                </mxCell>
                <mxCell id="183" value="imm32_reg" style="text;html=1;align=center;verticalAlign=middle;resizable=0;points=[];autosize=1;strokeColor=none;fillColor=none;fontSize=12;strokeWidth=3;" parent="1" vertex="1">
                    <mxGeometry x="1583" y="440" width="79" height="27" as="geometry"/>
                </mxCell>
                <mxCell id="184" value="wb_o" style="text;html=1;align=center;verticalAlign=middle;resizable=0;points=[];autosize=1;strokeColor=none;fillColor=none;fontSize=12;strokeWidth=3;" parent="1" vertex="1">
                    <mxGeometry x="1722" y="400" width="48" height="27" as="geometry"/>
                </mxCell>
                <mxCell id="186" value="imm32_reg2" style="text;html=1;align=center;verticalAlign=middle;resizable=0;points=[];autosize=1;strokeColor=none;fillColor=none;fontSize=12;strokeWidth=3;" parent="1" vertex="1">
                    <mxGeometry x="1426" y="570" width="86" height="27" as="geometry"/>
                </mxCell>
                <mxCell id="189" value="imm32_reg1" style="text;html=1;align=center;verticalAlign=middle;resizable=0;points=[];autosize=1;strokeColor=none;fillColor=none;fontSize=12;strokeWidth=3;" parent="1" vertex="1">
                    <mxGeometry x="1023" y="594" width="86" height="27" as="geometry"/>
                </mxCell>
                <mxCell id="192" value="pc_o" style="text;html=1;align=center;verticalAlign=middle;resizable=0;points=[];autosize=1;strokeColor=none;fillColor=none;fontSize=12;strokeWidth=3;" vertex="1" parent="1">
                    <mxGeometry x="370" y="512" width="45" height="27" as="geometry"/>
                </mxCell>
                <mxCell id="193" style="edgeStyle=orthogonalEdgeStyle;html=1;exitX=1;exitY=0.5;exitDx=0;exitDy=0;strokeWidth=3;entryX=0.5;entryY=0;entryDx=0;entryDy=0;entryPerimeter=0;" edge="1" parent="1" source="70" target="24">
                    <mxGeometry relative="1" as="geometry">
                        <mxPoint x="606" y="176" as="targetPoint"/>
                        <Array as="points">
                            <mxPoint x="1808" y="423"/>
                            <mxPoint x="1808" y="200"/>
                            <mxPoint x="751" y="200"/>
                        </Array>
                    </mxGeometry>
                </mxCell>
                <mxCell id="195" value="pc_reg3" style="text;html=1;align=center;verticalAlign=middle;resizable=0;points=[];autosize=1;strokeColor=none;fillColor=none;" vertex="1" parent="1">
                    <mxGeometry x="1315" y="305" width="62" height="27" as="geometry"/>
                </mxCell>
                <mxCell id="197" style="edgeStyle=none;html=1;strokeWidth=3;exitX=1.005;exitY=0.068;exitDx=0;exitDy=0;exitPerimeter=0;" edge="1" parent="1" source="106" target="196">
                    <mxGeometry relative="1" as="geometry"/>
                </mxCell>
                <mxCell id="196" value="+4" style="whiteSpace=wrap;html=1;" vertex="1" parent="1">
                    <mxGeometry x="1390" y="313" width="73" height="44" as="geometry"/>
                </mxCell>
                <mxCell id="198" value="pc4" style="text;html=1;align=center;verticalAlign=middle;resizable=0;points=[];autosize=1;strokeColor=none;fillColor=none;" vertex="1" parent="1">
                    <mxGeometry x="1474" y="302" width="38" height="27" as="geometry"/>
                </mxCell>
                <mxCell id="203" value="instr_reg2" style="text;html=1;align=center;verticalAlign=middle;resizable=0;points=[];autosize=1;strokeColor=none;fillColor=none;" vertex="1" parent="1">
                    <mxGeometry x="1030" y="637" width="72" height="27" as="geometry"/>
                </mxCell>
                <mxCell id="205" value="instr_reg3" style="text;html=1;align=center;verticalAlign=middle;resizable=0;points=[];autosize=1;strokeColor=none;fillColor=none;" vertex="1" parent="1">
                    <mxGeometry x="1443" y="639" width="72" height="27" as="geometry"/>
                </mxCell>
                <mxCell id="207" value="adr_rd_reg" style="text;html=1;align=center;verticalAlign=middle;resizable=0;points=[];autosize=1;strokeColor=none;fillColor=none;" vertex="1" parent="1">
                    <mxGeometry x="581" y="419" width="78" height="27" as="geometry"/>
                </mxCell>
                <mxCell id="208" value="pc_reg2" style="text;html=1;align=center;verticalAlign=middle;resizable=0;points=[];autosize=1;strokeColor=none;fillColor=none;" vertex="1" parent="1">
                    <mxGeometry x="924" y="302" width="62" height="27" as="geometry"/>
                </mxCell>
                <mxCell id="210" value="" style="endArrow=none;dashed=1;html=1;dashPattern=1 3;strokeWidth=5;fillColor=#6a00ff;strokeColor=#3700CC;spacing=2;" edge="1" parent="1">
                    <mxGeometry width="50" height="50" relative="1" as="geometry">
                        <mxPoint x="467" y="951" as="sourcePoint"/>
                        <mxPoint x="467" y="115" as="targetPoint"/>
                    </mxGeometry>
                </mxCell>
                <mxCell id="212" value="" style="endArrow=none;dashed=1;html=1;dashPattern=1 3;strokeWidth=5;fillColor=#6a00ff;strokeColor=#3700CC;" edge="1" parent="1">
                    <mxGeometry width="50" height="50" relative="1" as="geometry">
                        <mxPoint x="880" y="951" as="sourcePoint"/>
                        <mxPoint x="880" y="115" as="targetPoint"/>
                    </mxGeometry>
                </mxCell>
                <mxCell id="213" value="" style="endArrow=none;dashed=1;html=1;dashPattern=1 3;strokeWidth=5;fillColor=#6a00ff;strokeColor=#3700CC;" edge="1" parent="1">
                    <mxGeometry width="50" height="50" relative="1" as="geometry">
                        <mxPoint x="1290" y="951" as="sourcePoint"/>
                        <mxPoint x="1290" y="115" as="targetPoint"/>
                    </mxGeometry>
                </mxCell>
                <mxCell id="214" value="" style="endArrow=none;dashed=1;html=1;dashPattern=1 3;strokeWidth=5;fillColor=#6a00ff;strokeColor=#3700CC;" edge="1" parent="1">
                    <mxGeometry width="50" height="50" relative="1" as="geometry">
                        <mxPoint x="1557.23" y="951" as="sourcePoint"/>
                        <mxPoint x="1557.23" y="115" as="targetPoint"/>
                    </mxGeometry>
                </mxCell>
                <mxCell id="215" value="&lt;font style=&quot;font-size: 52px;&quot;&gt;IF&lt;/font&gt;" style="text;html=1;align=center;verticalAlign=middle;resizable=0;points=[];autosize=1;strokeColor=none;fillColor=none;fontColor=#3700cc;" vertex="1" parent="1">
                    <mxGeometry x="204" y="786" width="65" height="75" as="geometry"/>
                </mxCell>
                <mxCell id="216" value="&lt;span style=&quot;font-size: 52px;&quot;&gt;IMEM&lt;/span&gt;" style="text;html=1;align=center;verticalAlign=middle;resizable=0;points=[];autosize=1;strokeColor=none;fillColor=none;fontColor=#3700cc;" vertex="1" parent="1">
                    <mxGeometry x="603" y="788" width="155" height="75" as="geometry"/>
                </mxCell>
                <mxCell id="217" value="&lt;span style=&quot;font-size: 52px;&quot;&gt;EX&lt;/span&gt;" style="text;html=1;align=center;verticalAlign=middle;resizable=0;points=[];autosize=1;strokeColor=none;fillColor=none;fontColor=#3700cc;" vertex="1" parent="1">
                    <mxGeometry x="1101" y="782" width="88" height="75" as="geometry"/>
                </mxCell>
                <mxCell id="218" value="&lt;span style=&quot;font-size: 52px;&quot;&gt;LS&lt;/span&gt;" style="text;html=1;align=center;verticalAlign=middle;resizable=0;points=[];autosize=1;strokeColor=none;fillColor=none;fontColor=#FFFFFF;" vertex="1" parent="1">
                    <mxGeometry x="1378" y="782" width="83" height="75" as="geometry"/>
                </mxCell>
                <mxCell id="219" value="&lt;span style=&quot;font-size: 52px;&quot;&gt;WB&lt;/span&gt;" style="text;html=1;align=center;verticalAlign=middle;resizable=0;points=[];autosize=1;strokeColor=none;fillColor=none;fontColor=#FFFFFF;" vertex="1" parent="1">
                    <mxGeometry x="1634" y="788" width="103" height="75" as="geometry"/>
                </mxCell>
                <mxCell id="222" value="adr_rd_reg" style="text;html=1;align=center;verticalAlign=middle;resizable=0;points=[];autosize=1;strokeColor=none;fillColor=none;fontSize=12;fontColor=#FFFFFF;" vertex="1" parent="1">
                    <mxGeometry x="1589" y="628" width="78" height="27" as="geometry"/>
                </mxCell>
                <mxCell id="223" value="&lt;font style=&quot;font-size: 52px;&quot;&gt;IF&lt;/font&gt;" style="text;html=1;align=center;verticalAlign=middle;resizable=0;points=[];autosize=1;strokeColor=none;fillColor=none;fontColor=#FFFFFF;" vertex="1" parent="1">
                    <mxGeometry x="202" y="784" width="65" height="75" as="geometry"/>
                </mxCell>
                <mxCell id="224" value="&lt;span style=&quot;font-size: 52px;&quot;&gt;IMEM&lt;/span&gt;" style="text;html=1;align=center;verticalAlign=middle;resizable=0;points=[];autosize=1;strokeColor=none;fillColor=none;fontColor=#FFFFFF;" vertex="1" parent="1">
                    <mxGeometry x="601" y="786" width="155" height="75" as="geometry"/>
                </mxCell>
                <mxCell id="225" value="&lt;span style=&quot;font-size: 52px;&quot;&gt;EX&lt;/span&gt;" style="text;html=1;align=center;verticalAlign=middle;resizable=0;points=[];autosize=1;strokeColor=none;fillColor=none;fontColor=#FFFFFF;" vertex="1" parent="1">
                    <mxGeometry x="1099" y="780" width="88" height="75" as="geometry"/>
                </mxCell>
            </root>
        </mxGraphModel>
    </diagram>
</mxfile>